<?xml version="1.0" encoding="iso-8859-1"?>
<!-- Uploaded to: SVG Repo, www.svgrepo.com, Generator: SVG Repo Mixer Tools -->
<svg height="800px" width="800px" version="1.1" id="Layer_1" xmlns="http://www.w3.org/2000/svg" xmlns:xlink="http://www.w3.org/1999/xlink" 
	 viewBox="0 0 512 512" xml:space="preserve">
<path d="M0,262.891L0,262.891C0,262.922,0,262.922,0,262.891z"/>
<g>
	<path style="fill:#967ADC;" d="M390.656,150.234c-37.75-21.281-87.688-33-140.625-33c-65.75,0-127.719,14.531-174.5,40.906
		c-23.281,13.141-41.656,28.547-54.594,45.812C7.094,222.406,0.062,242.406,0,262.891c0.094,5.812,4.844,10.469,10.656,10.469
		s10.531-4.656,10.656-10.469c0-32.031,22.969-62.625,64.688-86.156c43.625-24.625,101.875-38.172,164.031-38.172
		c49.344,0,95.562,10.75,130.156,30.266c32.656,18.422,50.656,42.25,50.656,67.062c0,19.062-14,37.469-39.438,51.812
		c-27.375,15.438-63.969,23.938-103.094,23.938c-15,0-29.531-1.594-43-4.594l-2.531,21.25c14.406,3.062,29.781,4.672,45.531,4.672
		c42.719,0,83.062-9.484,113.562-26.672c32.438-18.312,50.312-43.297,50.312-70.406
		C452.188,203.031,430.312,172.609,390.656,150.234z"/>
	<path style="fill:#967ADC;" d="M501.312,238.328c-5.875,0-10.656,4.781-10.656,10.688c0,32.031-22.969,62.719-64.688,86.25
		c-43.625,24.625-101.875,38.172-164,38.172c-49.344,0-95.562-10.75-130.156-30.266c-32.688-18.422-50.688-42.25-50.688-67.062
		c0-19.062,14.031-37.469,39.469-51.812c27.344-15.438,63.969-23.938,103.062-23.938c15,0,29.531,1.594,43,4.594l2.312-21.312
		c-14.344-3.031-29.625-4.609-45.312-4.609c-42.719,0-83.062,9.484-113.562,26.672C77.656,224.017,59.812,249,59.812,276.109
		c0,32.859,21.844,63.281,61.5,85.656c37.75,21.281,87.688,33,140.656,33c65.75,0,127.719-14.531,174.5-40.906
		c23.25-13.141,41.625-28.547,54.594-45.812C504.938,289.516,512,269.594,512,249.017C512,243.109,507.219,238.328,501.312,238.328z
		"/>
</g>
<path style="fill:#AC92EC;" d="M329.438,256.031c0,40.578-32.875,73.453-73.469,73.453c-40.562,0-73.438-32.875-73.438-73.453
	s32.875-73.453,73.438-73.453C296.562,182.578,329.438,215.453,329.438,256.031z"/>
<path style="fill:#967ADC;" d="M288,256.031c0,17.672-14.344,32-32,32c-17.688,0-32-14.328-32-32s14.312-32,32-32
	C273.656,224.031,288,238.359,288,256.031z"/>
</svg>